<?xml version="1.0" standalone="no"?>
<!DOCTYPE svg PUBLIC "-//W3C//DTD SVG 20010904//EN"
 "http://www.w3.org/TR/2001/REC-SVG-20010904/DTD/svg10.dtd">
<svg version="1.0" xmlns="http://www.w3.org/2000/svg"
 width="1270.000000pt" height="1270.000000pt" viewBox="0 0 1270.000000 1270.000000"
 preserveAspectRatio="xMidYMid meet">
<metadata>
Created by potrace 1.11, written by Peter Selinger 2001-2013
</metadata>
<g transform="translate(0.000000,1270.000000) scale(0.100000,-0.100000)"
fill="#000000" stroke="none">
<path d="M3190 11279 c-372 -42 -746 -198 -1040 -436 -89 -72 -257 -243 -321
-328 -228 -297 -368 -648 -408 -1017 -15 -136 -15 -6280 0 -6416 41 -385 194
-752 436 -1052 72 -89 243 -257 328 -321 297 -228 648 -368 1017 -408 63 -7
527 -11 1318 -11 l1220 0 0 750 0 750 -1217 2 -1218 3 -56 21 c-147 57 -256
165 -312 312 l-22 57 0 3100 0 3100 24 65 c55 150 160 257 310 313 54 20 76
22 524 25 l467 3 0 -2750 0 -2751 750 0 750 0 0 625 0 625 665 0 665 0 0
-2125 0 -2125 750 0 750 0 0 2125 0 2125 475 0 c267 0 518 5 573 11 385 41
752 194 1052 436 89 72 257 243 321 328 184 240 321 538 378 820 40 200 42
277 39 1360 -4 1023 -4 1042 -26 1150 -105 533 -386 972 -817 1280 -230 164
-499 278 -800 338 -109 21 -117 22 -1402 25 l-1293 3 0 -2126 0 -2125 -665 0
-665 0 0 2125 0 2125 -1237 -1 c-681 -1 -1272 -5 -1313 -10z m6323 -1504 c88
-18 180 -67 243 -130 63 -63 94 -111 125 -195 l24 -65 0 -975 c0 -973 0 -975
-21 -1031 -58 -149 -165 -256 -312 -312 -55 -21 -75 -22 -529 -25 l-473 -3 0
1375 0 1376 438 0 c341 0 452 -3 505 -15z"/>
<path d="M11355 5032 c-207 -275 -526 -514 -865 -647 -157 -61 -432 -125 -542
-125 l-38 0 0 -1485 0 -1485 750 0 750 0 0 1905 c0 1048 -1 1905 -2 1905 -2
-1 -25 -31 -53 -68z"/>
</g>
</svg>
