<svg xmlns="http://www.w3.org/2000/svg" xmlns:xlink="http://www.w3.org/1999/xlink" width="128" height="128" class="icon" p-id="1579" t="1561090683572" version="1.1" viewBox="0 0 1024 1024"><defs><style type="text/css"/></defs><path fill="#F9E4D2" d="M881.4 72.6v467.9c-160 26.1-282.1 165-282.1 332.4v123H432.1v-123c0-167.4-122.1-306.2-282.1-332.4V70.1c0-19.4 24.2-28.5 37-13.8l113.4 130.6c25.2 13.2 55.1 15.1 81.3 4.2 25-10.3 66.6-52 134.1-52 68.8 0 113.5 42.1 140.7 52.7 27.3 10.6 57.7 8.9 83.3-5.2L844 59.2c12.5-15.2 37.4-6.4 37.4 13.4z" p-id="1580"/><path fill="#FFF5EE" d="M238.3 226.8c0-19.4 24.2-28.5 37-13.8l75.4 44.9c25.2 13.2 55.1 15.1 81.3 4.2 25-10.3 68.3-56.4 135.8-56.4 68.8 0 134.4 26 161.6 36.6 27.3 10.6 57.7 8.9 83.3-5.2l68.5-40.2V72.6c0-19.7-24.9-28.6-37.4-13.4L739.7 186.5c-25.6 14.1-56 15.8-83.3 5.2-27.3-10.6-72-52.7-140.7-52.7-67.5 0-109.1 41.7-134.1 52-26.2 11-56.1 9-81.3-4.2L186.9 56.3c-12.7-14.7-37-5.6-37 13.8v470.4c25.5 4.2 49.9 11.2 73.1 20.8l15.3-334.5z" p-id="1581"/><path fill="#383F51" d="M595.6 1016.8H428.4c-17.3 0-31.3-14-31.3-31.3v-123c0-150.4-107.6-277.1-255.8-301.4-15.2-2.5-26.3-15.6-26.3-30.9V59.7c0-22.1 13.4-41.4 34.1-49.1 20.7-7.7 43.5-1.9 57.9 14.8L316.1 151c16.3 7 34.1 7.3 49.8 0.7 4.2-1.7 11.2-6.2 18.7-10.9 27.3-17.3 68.7-43.5 127.5-43.5 58.7 0 101.9 25.9 130.6 43 8.5 5.1 16.6 9.9 21.5 11.8 17.1 6.6 35.8 6.2 51.9-1l100-122.2c14.3-17.3 37.1-23.6 58.2-16.1 21.1 7.6 34.8 26.9 34.8 49.3V530c0 15.4-11.1 28.5-26.3 30.9C734.6 585.1 627 711.9 627 862.3v123c-0.1 17.5-14.1 31.5-31.4 31.5z m-135.8-62.7h104.5v-91.6c0-172.3 117.1-318.9 282.1-358.1V90.9L760.3 196c-2.5 3.1-5.6 5.7-9.1 7.6-33.5 18.5-73.5 21-109.7 7-9.9-3.8-19.7-9.7-31.1-16.5-25.4-15.2-57-34.1-98.4-34.1-40.6 0-70.1 18.7-93.9 33.8-10.2 6.5-19.1 12.1-28.2 15.9-34.4 14.4-73.7 12.4-107.8-5.4-3.5-1.8-6.6-4.3-9.1-7.2L177.6 87.2v417.2c165 39.3 282.1 185.8 282.1 358v91.7z m417.9-424h0.1-0.1z" p-id="1582"/><path fill="#7585AA" d="M390.3 367.1m-108.2 0a108.2 108.2 0 1 0 216.4 0 108.2 108.2 0 1 0-216.4 0Z" p-id="1583"/><path fill="#7585AA" d="M633.7 367.1m-108.2 0a108.2 108.2 0 1 0 216.4 0 108.2 108.2 0 1 0-216.4 0Z" p-id="1584"/><path fill="#A7BDEA" d="M390.3 367.1m-108.2 0a108.2 108.2 0 1 0 216.4 0 108.2 108.2 0 1 0-216.4 0Z" p-id="1585"/><path fill="#A7BDEA" d="M633.7 367.1m-108.2 0a108.2 108.2 0 1 0 216.4 0 108.2 108.2 0 1 0-216.4 0Z" p-id="1586"/><path fill="#383F51" d="M390.3 490.9c-68.3 0-123.9-55.6-123.9-123.9S322 243.2 390.3 243.2s123.9 55.6 123.9 123.9-55.6 123.8-123.9 123.8z m0-216.3c-51 0-92.5 41.5-92.5 92.5s41.5 92.5 92.5 92.5 92.5-41.5 92.5-92.5-41.5-92.5-92.5-92.5z" p-id="1587"/><path fill="#383F51" d="M633.7 490.9c-68.3 0-123.9-55.6-123.9-123.9s55.6-123.9 123.9-123.9S757.6 298.7 757.6 367 702 490.9 633.7 490.9z m0-216.3c-51 0-92.5 41.5-92.5 92.5s41.5 92.5 92.5 92.5 92.5-41.5 92.5-92.5-41.5-92.5-92.5-92.5z" p-id="1588"/><path fill="#383F51" d="M390.3 490.9c-68.3 0-123.9-55.6-123.9-123.9S322 243.2 390.3 243.2s123.9 55.6 123.9 123.9-55.6 123.8-123.9 123.8z m0-216.3c-51 0-92.5 41.5-92.5 92.5s41.5 92.5 92.5 92.5 92.5-41.5 92.5-92.5-41.5-92.5-92.5-92.5z" p-id="1589"/><path fill="#383F51" d="M390.3 367.1m-40.6 0a40.6 40.6 0 1 0 81.2 0 40.6 40.6 0 1 0-81.2 0Z" p-id="1590"/><path fill="#383F51" d="M390.3 367.1m-40.6 0a40.6 40.6 0 1 0 81.2 0 40.6 40.6 0 1 0-81.2 0Z" p-id="1591"/><path fill="#383F51" d="M633.7 490.9c-68.3 0-123.9-55.6-123.9-123.9s55.6-123.9 123.9-123.9S757.6 298.7 757.6 367 702 490.9 633.7 490.9z m0-216.3c-51 0-92.5 41.5-92.5 92.5s41.5 92.5 92.5 92.5 92.5-41.5 92.5-92.5-41.5-92.5-92.5-92.5z" p-id="1592"/><path fill="#383F51" d="M633.7 367.1m-40.6 0a40.6 40.6 0 1 0 81.2 0 40.6 40.6 0 1 0-81.2 0Z" p-id="1593"/><path fill="#383F51" d="M633.7 367.1m-40.6 0a40.6 40.6 0 1 0 81.2 0 40.6 40.6 0 1 0-81.2 0Z" p-id="1594"/><path fill="#383F51" d="M512 599.1h-0.7c-5.9-0.3-11.2-3.9-13.6-9.3l-54.1-121.7c-3.5-7.9 0-17.2 8-20.7 7.9-3.5 17.2 0.1 20.7 8l41.3 93 52.4-94.2c4.2-7.6 13.7-10.3 21.3-6.1 7.6 4.2 10.3 13.7 6.1 21.3l-67.6 121.7c-2.9 4.9-8.2 8-13.8 8z" p-id="1595"/><path fill="#94A9D3" d="M428.4 862.5v123H205.2c-96 0-173.9-77.8-173.9-174V525.7h60.2c18.6 0 36.9 1.5 54.8 4.4 160 26.2 282.1 165 282.1 332.4z" p-id="1596"/><path fill="#7991B7" d="M283.4 907.2c-96 0-173.9-77.8-173.9-174V526.4c-6-0.3-12-0.7-18-0.7H31.3v285.8c0 96.1 77.8 174 173.9 174h223.2v-78.2h-145z" p-id="1597"/><path fill="#94A9D3" d="M992.7 525.7v285.8c0 96.1-78 174-174 174H595.6v-123c0-167.4 122.1-306.3 282.1-332.4 17.8-2.9 36-4.4 54.6-4.4h60.4z" p-id="1598"/><path fill="#7991B7" d="M932.4 525.7c-4.8 0-9.5 0.4-14.3 0.6V737c0 96.1-77.9 174-174 174H595.6v74.6h223.1c96 0 174-77.8 174-174V525.7h-60.3z" p-id="1599"/><path fill="#383F51" d="M428.4 1016.8H205.2C92.1 1016.8 0 924.7 0 811.5V525.7c0-17.3 14-31.3 31.3-31.3h60.2c20.3 0 40.4 1.6 59.8 4.8C330 528.5 459.7 681.3 459.7 862.5v123c0.1 17.3-14 31.3-31.3 31.3zM62.7 557v254.4C62.7 890 126.6 954 205.2 954H397v-91.6C397 712 289.4 585.3 141.2 561c-16.1-2.6-32.8-4-49.7-4H62.7z" p-id="1600"/><path fill="#383F51" d="M818.7 1016.8H595.6c-17.3 0-31.3-14-31.3-31.3v-123c0-181.3 129.7-334.1 308.4-363.3 19.3-3.2 39.4-4.8 59.7-4.8h60.3c17.3 0 31.3 14 31.3 31.3v285.8c0 113.2-92.1 205.3-205.3 205.3z m-191.8-62.7h191.7c78.6 0 142.6-64 142.6-142.6V557h-28.9c-16.9 0-33.6 1.3-49.6 4-148.3 24.2-255.9 151-255.9 301.5v91.6z" p-id="1601"/></svg>