<svg id="图层_1" data-name="图层 1" xmlns="http://www.w3.org/2000/svg" xmlns:xlink="http://www.w3.org/1999/xlink" viewBox="0 0 323.8 403.24"><defs><style>.cls-1{fill:#ffee58;}.cls-2{fill:#8c8c8c;}.cls-3{fill:#c6c6c6;}.cls-4{fill:#ff6689;}.cls-5{fill:#2ebaa4;}.cls-6{fill:#fcf255;}.cls-7{fill:#0791e5;}.cls-8{fill:#0798ff;}.cls-9{fill:#0eacff;}.cls-10{fill:#16cdff;}.cls-11{fill:#065a84;}.cls-12{fill:#ff759a;}.cls-13{mask:url(#mask);}.cls-14{fill:#ef3358;}.cls-15{mask:url(#mask-2);}.cls-16{fill:#e4a3dc;}.cls-17{fill:#ff76aa;}.cls-18{fill:#ffb709;}.cls-19{mask:url(#mask-3);}.cls-20{fill:#ec5992;}.cls-21{fill:#fd99bd;}.cls-22{mask:url(#mask-4);}.cls-23{fill:#b01457;}.cls-24{mask:url(#mask-5);}.cls-25{fill:#ffdcfb;}.cls-26{mask:url(#mask-6);}.cls-27,.cls-39{fill:none;}.cls-28{fill:#ff67a9;}.cls-29{fill:#fe54ab;}.cls-30{fill:#fb6212;}.cls-31{fill:#e9caf9;}.cls-32{fill:#a56825;}.cls-33{fill:#93918d;}.cls-34{fill:#ffeea9;}.cls-35{fill:#73c677;}.cls-36{fill:#4f4c45;}.cls-37{fill:#d75455;}.cls-38{fill:#ea9833;}.cls-39{stroke:#000;}.cls-39,.cls-41,.cls-52,.cls-53,.cls-54{stroke-miterlimit:10;}.cls-39,.cls-41{stroke-width:2.35px;}.cls-40{fill:#c8b589;}.cls-41,.cls-52,.cls-53,.cls-54{fill:#fff;stroke:#73bfb0;}.cls-42{mask:url(#mask-7);}.cls-43{mask:url(#mask-8);}.cls-44{mask:url(#mask-9);}.cls-45{mask:url(#mask-10);}.cls-46{mask:url(#mask-11);}.cls-47{mask:url(#mask-12);}.cls-48{fill:#44cc72;}.cls-49{fill:#73bfb0;}.cls-50{fill:#ff8fc8;}.cls-51{fill:#feb427;}.cls-52{stroke-width:1.71px;}.cls-53{stroke-width:1.79px;}.cls-54{stroke-width:2.98px;}</style><mask id="mask" x="150.96" y="325.06" width="92.58" height="54.54" maskUnits="userSpaceOnUse"><g transform="translate(-338.53 -224.21)"><path class="cls-1" d="M489.49,551.55s2.78,22,12.05,21.56,9.06-23.67,9.06-23.67-1.13,15,3.89,15,2.05-2.8,6.51-3.16.64,7.14,5.52,7.38-2.34-13.36,3-13.36,0,8.91,6.37,8.44-1.7-12.19,6.37-11,.85,14.3,5.31,13.83,0-10.08,3-10.08-.64,9.61,3,9.37,1.27-4.91,4.25-4.57,1.27,3.86,3.72,4.1,6.48-18,10.72-15.94-5.52,16.87,0,16.17,2.55-11.72,5.2-11.25"/></g></mask><mask id="mask-2" x="150.96" y="326.12" width="92.58" height="49.06" maskUnits="userSpaceOnUse"><g transform="translate(-338.53 -224.21)"><path class="cls-1" d="M489.49,552.37s2.78,19.82,12.05,19.39,9.06-21.29,9.06-21.29S509.47,564,514.5,564s2.05-2.52,6.51-2.84.64,6.43,5.52,6.64-2.34-12,3-12,0,8,6.37,7.59-1.7-11,6.37-9.91.85,12.86,5.31,12.44,0-9.06,3-9.06-.64,8.64,3,8.43,1.27-4.42,4.25-4.11,1.27,3.47,3.72,3.69,6.48-16.23,10.72-14.33-5.52,15.18,0,14.55,2.55-10.54,5.2-10.12"/></g></mask><mask id="mask-3" x="166.96" y="307.55" width="60.65" height="31.58" maskUnits="userSpaceOnUse"><g transform="translate(-338.53 -224.21)"><path class="cls-1" d="M505.48,533.08s1.82,12.75,7.9,12.48,5.94-13.7,5.94-13.7-.74,8.68,2.55,8.68,1.35-1.62,4.27-1.83.42,4.14,3.62,4.27-1.53-7.73,1.95-7.73,0,5.16,4.17,4.88-1.11-7.06,4.17-6.38.56,8.28,3.48,8,0-5.83,1.95-5.83-.42,5.56,1.95,5.43.83-2.84,2.78-2.64.83,2.24,2.43,2.37,4.24-10.45,7-9.23-3.62,9.77,0,9.36,1.67-6.78,3.41-6.51"/></g></mask><mask id="mask-4" x="175.81" y="295.58" width="42.99" height="22.38" maskUnits="userSpaceOnUse"><g transform="translate(-338.53 -224.21)"><path class="cls-1" d="M514.33,520.72s1.29,9,5.6,8.85,4.21-9.71,4.21-9.71-.53,6.15,1.81,6.15,1-1.15,3-1.3.3,2.93,2.56,3-1.08-5.48,1.38-5.48,0,3.65,3,3.46-.79-5,3-4.52.39,5.87,2.47,5.67,0-4.14,1.38-4.14-.3,3.94,1.38,3.85.59-2,2-1.87.59,1.59,1.73,1.68,3-7.4,5-6.54-2.56,6.92,0,6.64,1.18-4.81,2.42-4.62"/></g></mask><mask id="mask-5" x="175.81" y="294.7" width="42.99" height="23.85" maskUnits="userSpaceOnUse"><g transform="translate(-338.53 -224.21)"><path class="cls-1" d="M514.33,519.91s1.29,9.63,5.6,9.43S524.14,519,524.14,519s-.53,6.56,1.81,6.56,1-1.23,3-1.38.3,3.12,2.56,3.23-1.08-5.84,1.38-5.84,0,3.89,3,3.69-.79-5.33,3-4.82.39,6.25,2.47,6,0-4.41,1.38-4.41-.3,4.2,1.38,4.1.59-2.15,2-2,.59,1.69,1.73,1.79,3-7.89,5-7-2.56,7.38,0,7.07,1.18-5.12,2.42-4.92"/></g></mask><mask id="mask-6" x="166.96" y="308.41" width="60.65" height="27.14" maskUnits="userSpaceOnUse"><g transform="translate(-338.53 -224.21)"><path class="cls-1" d="M505.48,533.75s1.82,11,7.9,10.73,5.94-11.78,5.94-11.78-.74,7.46,2.55,7.46,1.35-1.4,4.27-1.57.42,3.55,3.62,3.67-1.53-6.65,1.95-6.65,0,4.43,4.17,4.2-1.11-6.06,4.17-5.48.56,7.11,3.48,6.88,0-5,1.95-5-.42,4.78,1.95,4.66.83-2.45,2.78-2.27.83,1.92,2.43,2,4.24-9,7-7.93-3.62,8.4,0,8,1.67-5.83,3.41-5.6"/></g></mask><mask id="mask-7" x="59.98" y="326.14" width="92.58" height="54.54" maskUnits="userSpaceOnUse"><g transform="translate(-338.53 -224.21)"><path class="cls-1" d="M398.5,552.63s2.78,22,12.05,21.56,9.06-23.67,9.06-23.67-1.13,15,3.89,15,2.05-2.8,6.51-3.16.64,7.14,5.52,7.38-2.34-13.36,3-13.36,0,8.91,6.37,8.44-1.7-12.19,6.37-11,.85,14.3,5.31,13.83,0-10.08,3-10.08-.64,9.61,3,9.37,1.27-4.91,4.25-4.57,1.27,3.86,3.72,4.1,6.48-18,10.72-15.94-5.52,16.87,0,16.17,2.55-11.72,5.2-11.25"/></g></mask><mask id="mask-8" x="59.98" y="327.2" width="92.58" height="49.06" maskUnits="userSpaceOnUse"><g transform="translate(-338.53 -224.21)"><path class="cls-1" d="M398.5,553.45s2.78,19.82,12.05,19.39,9.06-21.29,9.06-21.29S418.48,565,423.51,565s2.05-2.52,6.51-2.84.64,6.43,5.52,6.64-2.34-12,3-12,0,8,6.37,7.59-1.7-11,6.37-9.91.85,12.86,5.31,12.44,0-9.06,3-9.06-.64,8.64,3,8.43,1.27-4.42,4.25-4.11,1.27,3.47,3.72,3.69,6.48-16.23,10.72-14.33-5.52,15.18,0,14.55,2.55-10.54,5.2-10.12"/></g></mask><mask id="mask-9" x="78.01" y="308.63" width="60.65" height="31.58" maskUnits="userSpaceOnUse"><g transform="translate(-338.53 -224.21)"><path class="cls-1" d="M416.54,534.16s1.82,12.75,7.9,12.48,5.94-13.7,5.94-13.7-.74,8.68,2.55,8.68,1.35-1.62,4.27-1.83.42,4.14,3.62,4.27-1.53-7.73,1.95-7.73,0,5.16,4.17,4.88-1.11-7.06,4.17-6.38.56,8.28,3.48,8,0-5.83,1.95-5.83-.42,5.56,1.95,5.43.83-2.84,2.78-2.64.83,2.24,2.43,2.37,4.24-10.45,7-9.23-3.62,9.77,0,9.36,1.67-6.78,3.41-6.51"/></g></mask><mask id="mask-10" x="84.82" y="296.66" width="42.99" height="22.38" maskUnits="userSpaceOnUse"><g transform="translate(-338.53 -224.21)"><path class="cls-1" d="M423.35,521.8s1.29,9,5.6,8.85,4.21-9.71,4.21-9.71-.53,6.15,1.81,6.15,1-1.15,3-1.3.3,2.93,2.56,3-1.08-5.48,1.38-5.48,0,3.65,3,3.46-.79-5,3-4.52.39,5.87,2.47,5.67,0-4.14,1.38-4.14-.3,3.94,1.38,3.85.59-2,2-1.87.59,1.59,1.73,1.68,3-7.4,5-6.54-2.56,6.92,0,6.64,1.18-4.81,2.42-4.62"/></g></mask><mask id="mask-11" x="84.82" y="295.78" width="42.99" height="23.85" maskUnits="userSpaceOnUse"><g transform="translate(-338.53 -224.21)"><path class="cls-1" d="M423.35,521s1.29,9.63,5.6,9.43,4.21-10.35,4.21-10.35-.53,6.56,1.81,6.56,1-1.23,3-1.38.3,3.12,2.56,3.23-1.08-5.84,1.38-5.84,0,3.89,3,3.69-.79-5.33,3-4.82.39,6.25,2.47,6,0-4.41,1.38-4.41-.3,4.2,1.38,4.1.59-2.15,2-2,.59,1.69,1.73,1.79,3-7.89,5-7-2.56,7.38,0,7.07,1.18-5.12,2.42-4.92"/></g></mask><mask id="mask-12" x="76.99" y="309.49" width="60.65" height="27.14" maskUnits="userSpaceOnUse"><g transform="translate(-338.53 -224.21)"><path class="cls-1" d="M415.52,534.83s1.82,11,7.9,10.73,5.94-11.78,5.94-11.78-.74,7.46,2.55,7.46,1.35-1.4,4.27-1.57.42,3.55,3.62,3.67-1.53-6.65,1.95-6.65,0,4.43,4.17,4.2-1.11-6.06,4.17-5.48.56,7.11,3.48,6.88,0-5,1.95-5-.42,4.78,1.95,4.66.83-2.45,2.78-2.27.83,1.92,2.43,2,4.24-9,7-7.93-3.62,8.4,0,8,1.67-5.83,3.41-5.6"/></g></mask></defs><title>background</title><circle class="cls-1" cx="224.88" cy="226.11" r="9.34"/><circle class="cls-1" cx="229.6" cy="250.4" r="9.34"/><rect class="cls-2" x="98.71" y="317.96" width="21.41" height="65.59"/><circle class="cls-3" cx="96.93" cy="351.63" r="37.43"/><path class="cls-4" d="M565.44,463.79s1.06,7.07,6.74,5.49,4.45-15,.61-17.11-14.78,1-15.17,5.5S562.65,464.5,565.44,463.79Z" transform="translate(-338.53 -224.21)"/><path class="cls-5" d="M567,471.13,565.36,464l-7.85.43c2.18,1.68,4.11,1.53,7.85-.43-1.71,3.35,1.85,7.42,1.85,7.42" transform="translate(-338.53 -224.21)"/><ellipse class="cls-6" cx="572.38" cy="462.36" rx="0.68" ry="0.5" transform="translate(-453.08 501.8) rotate(-59.93)"/><ellipse class="cls-6" cx="571.25" cy="467.38" rx="0.68" ry="0.5" transform="translate(-457.99 503.32) rotate(-59.93)"/><ellipse class="cls-6" cx="570.66" cy="456.87" rx="0.68" ry="0.5" transform="translate(-449.2 497.57) rotate(-59.93)"/><ellipse class="cls-6" cx="574.07" cy="457.01" rx="0.68" ry="0.5" transform="translate(-447.62 500.59) rotate(-59.93)"/><ellipse class="cls-6" cx="568.1" cy="460.67" rx="0.68" ry="0.5" transform="matrix(0.5, -0.87, 0.87, 0.5, -453.76, 497.25)"/><ellipse class="cls-6" cx="559.68" cy="458.34" rx="0.68" ry="0.5" transform="translate(-455.94 488.8) rotate(-59.93)"/><ellipse class="cls-6" cx="565.04" cy="458.11" rx="0.68" ry="0.5" transform="translate(-453.07 493.32) rotate(-59.93)"/><ellipse class="cls-6" cx="563.85" cy="454.83" rx="0.68" ry="0.5" transform="translate(-450.82 490.66) rotate(-59.93)"/><ellipse class="cls-6" cx="568.12" cy="452.78" rx="0.68" ry="0.5" transform="translate(-446.92 493.33) rotate(-59.93)"/><ellipse class="cls-6" cx="567.67" cy="465.3" rx="0.68" ry="0.5" transform="matrix(0.5, -0.87, 0.87, 0.5, -457.99, 499.19)"/><path class="cls-7" d="M548.48,500.18c5.77,1.44,10,5.15,9.41,8.28s-5.71,4.5-11.48,3.06-10-5.15-9.41-8.28S542.71,498.74,548.48,500.18Z" transform="translate(-338.53 -224.21)"/><path class="cls-7" d="M565,500.62c-5.82,1.14-10.17,4.62-9.72,7.78s5.53,4.8,11.35,3.66,10.17-4.62,9.72-7.78S570.81,499.48,565,500.62Z" transform="translate(-338.53 -224.21)"/><path class="cls-8" d="M553,490.34c4.65,4.26,7,9.75,5.36,12.27s-6.82,1.12-11.46-3.14-7-9.75-5.36-12.27S548.31,486.09,553,490.34Z" transform="translate(-338.53 -224.21)"/><path class="cls-8" d="M560.88,490.55c-4.8,4-7.41,9.37-5.83,12s6.77,1.47,11.57-2.54,7.41-9.37,5.83-12S565.69,486.54,560.88,490.55Z" transform="translate(-338.53 -224.21)"/><path class="cls-9" d="M554.49,478.19c2.9,6,3.33,12.17.95,13.74s-6.66-2-9.57-8-3.33-12.17-.95-13.74S551.58,472.17,554.49,478.19Z" transform="translate(-338.53 -224.21)"/><path class="cls-9" d="M559.83,478.33c-3.13,5.86-3.79,12-1.47,13.68s6.73-1.67,9.86-7.53,3.79-12,1.47-13.68S563,472.47,559.83,478.33Z" transform="translate(-338.53 -224.21)"/><path class="cls-10" d="M562.19,473.77c-.13,6.91-2.45,12.45-5.19,12.38s-4.84-5.73-4.71-12.64,2.45-12.45,5.19-12.38S562.32,466.86,562.19,473.77Z" transform="translate(-338.53 -224.21)"/><path class="cls-11" d="M557.23,474.61s-6.15,34.4-.87,45.52" transform="translate(-338.53 -224.21)"/><path class="cls-11" d="M557.23,474.61s4.83,34.69-.87,45.52" transform="translate(-338.53 -224.21)"/><rect class="cls-12" x="151.16" y="335.55" width="92.38" height="39.63" rx="5.17" ry="5.17"/><g class="cls-13"><rect class="cls-14" x="151.16" y="335.55" width="92.38" height="44.06" rx="5.17" ry="5.17"/></g><g class="cls-15"><rect class="cls-16" x="151.16" y="335.55" width="92.38" height="39.63" rx="5.17" ry="5.17"/></g><rect class="cls-17" x="167.09" y="313.62" width="60.53" height="21.92" rx="2.3" ry="2.3"/><path class="cls-18" d="M535.73,498.55s1.12,2.31,0,4.06-3,4-2.62,5.94,1.29,3.26,3.53,3.29c2.45,0,4.3-1.45,4.3-4.57S538.74,499.58,535.73,498.55Z" transform="translate(-338.53 -224.21)"/><g class="cls-19"><rect class="cls-20" x="167.09" y="313.62" width="60.53" height="25.51" rx="2.46" ry="2.46"/></g><rect class="cls-21" x="175.9" y="299.29" width="42.9" height="15.14" rx="2.3" ry="2.3"/><g class="cls-22"><rect class="cls-23" x="175.9" y="299.88" width="42.9" height="18.08" rx="2.46" ry="2.46"/></g><g class="cls-24"><rect class="cls-25" x="175.9" y="299.29" width="42.9" height="19.26" rx="2.46" ry="2.46"/></g><g class="cls-26"><rect class="cls-25" x="167.09" y="313.62" width="60.53" height="21.92" rx="2.46" ry="2.46"/></g><polygon class="cls-1" points="193.46 298.23 193.46 298.35 193.42 298.38 193.46 298.23"/><line class="cls-27" x1="197.5" y1="299.29" x2="197.46" y2="299.32"/><polygon class="cls-28" points="201.06 293.18 201.06 295.56 198.58 299.29 196.98 299.29 201.06 293.18"/><polygon class="cls-29" points="201.06 287.7 201.06 293.18 196.98 299.29 195.9 299.29 195.9 298.35 201.04 290.65 201.04 288.31 196.35 295.36 195.93 295.99 195.93 293.89 200.06 287.7 201.06 287.7"/><polygon class="cls-28" points="201.04 288.31 201.04 290.65 195.9 298.35 195.9 287.7 197.54 287.7 195.94 290.08 195.94 292.09 198.87 287.7 200.06 287.7 195.93 293.89 195.93 295.99 196.35 295.36 201.04 288.31"/><polygon class="cls-29" points="201.06 295.56 201.06 299.29 198.58 299.29 201.06 295.56"/><polygon class="cls-29" points="198.87 287.7 195.94 292.09 195.94 290.08 197.54 287.7 198.87 287.7"/><polygon class="cls-1" points="200.07 287.68 200.06 287.7 198.87 287.7 198.88 287.68 200.07 287.68"/><line class="cls-27" x1="201.05" y1="297.81" x2="200.06" y2="299.3"/><line class="cls-27" x1="196.98" y1="299.29" x2="196.96" y2="299.32"/><path class="cls-6" d="M536.41,505.73a2.14,2.14,0,0,1,0,1.87c-.51.81-1.37,1.84-1.21,2.73a1.56,1.56,0,0,0,1.62,1.51,1.87,1.87,0,0,0,2-2.1C538.81,508.3,537.8,506.2,536.41,505.73Z" transform="translate(-338.53 -224.21)"/><ellipse class="cls-30" cx="170.36" cy="360.35" rx="3.27" ry="0.98"/><ellipse class="cls-8" cx="195.62" cy="348.97" rx="0.32" ry="3.23"/><ellipse class="cls-6" cx="183.91" cy="327.98" rx="1.62" ry="1.61"/><ellipse class="cls-30" cx="197.54" cy="323.35" rx="3.01" ry="1.23"/><ellipse class="cls-30" cx="194.49" cy="308.31" rx="2.17" ry="1.45"/><ellipse class="cls-6" cx="207.19" cy="306.74" rx="1.56" ry="0.77"/><ellipse class="cls-31" cx="220.07" cy="330.06" rx="2.27" ry="1.05"/><ellipse class="cls-31" cx="225.44" cy="347.89" rx="2.17" ry="2.15"/><ellipse class="cls-6" cx="206.66" cy="340.15" rx="1.03" ry="1.02"/><ellipse class="cls-30" cx="186.75" cy="338.94" rx="1.22" ry="1.21"/><rect class="cls-32" x="459.58" y="417.09" width="6.28" height="60.13" rx="1.36" ry="1.36" transform="translate(-305.44 -256.09) rotate(4.09)"/><path class="cls-33" d="M477.66,327.2c-2.29-1-2,1.39-2.87,2.19l-.57-.14c0-2.44-1.77-4.52-1.45-7,1.74-2.36,2.86-2.12,3.53.76C476.63,324.42,477.2,325.8,477.66,327.2Z" transform="translate(-338.53 -224.21)"/><path class="cls-34" d="M484.29,361.31s-6.85,5.05-19.11,4.69S452.74,359,452.74,359c1.68-7.85,3.41-13.6,4.14-15.91-.37,3.1-.29,11.6,11.71,12.49,14.69,1.08,15.2-14.08,15.2-14.08l-26.54.47c2.79-6.22,13.15-26.28,18.57-26.08.4,0,6.64,11.88,8.11,24.44A162.9,162.9,0,0,1,484.29,361.31Z" transform="translate(-338.53 -224.21)"/><path class="cls-35" d="M484.29,361.31c-.11,4-.3,8.19-.54,12.39,0,0-12.54,5.94-19.5,5s-13.88-6.49-13.88-6.49c.69-4.82,1.52-9.27,2.37-13.21,0,0,.19,6.69,12.44,7.05S484.29,361.31,484.29,361.31Z" transform="translate(-338.53 -224.21)"/><path class="cls-36" d="M483.75,373.7c-.25,4.46-.54,8.93-.87,13.17,0,0-9.42,6-19.08,6A19.23,19.23,0,0,1,449,385.25h0c.3-4.55.79-8.94,1.39-13.08,0,0,6.93,5.49,13.88,6.49S483.75,373.7,483.75,373.7Z" transform="translate(-338.53 -224.21)"/><path class="cls-35" d="M482.88,386.87c-.4,5.28-.84,10.21-1.27,14.34,0,0-4.53,6.7-16.54,6.34s-16.3-7-16.3-7a141.74,141.74,0,0,1,.22-15.26,19.23,19.23,0,0,0,14.81,7.58C473.46,392.92,482.88,386.87,482.88,386.87Z" transform="translate(-338.53 -224.21)"/><path class="cls-37" d="M481.6,401.21a111.61,111.61,0,0,1-1.53,11.33c-2.15,6.88-29.36,9.07-30.55-2.74-.39-3.09-.64-6.2-.76-9.29,0,0,4.29,6.68,16.3,7S481.6,401.21,481.6,401.21Z" transform="translate(-338.53 -224.21)"/><path class="cls-35" d="M483.78,341.46s-.5,15.16-15.2,14.08c-12-.89-12.08-9.39-11.71-12.49.23-.73.36-1.12.36-1.12Z" transform="translate(-338.53 -224.21)"/><path class="cls-35" d="M457.24,341.92s-.13.39-.36,1.12a10.2,10.2,0,0,1,.19-1.12Z" transform="translate(-338.53 -224.21)"/><path class="cls-38" d="M475.64,315.85c.4,0,6.76,11.87,8.11,24.44s-29.48,7.84-26.68,1.63S470.22,315.64,475.64,315.85Z" transform="translate(-338.53 -224.21)"/><path class="cls-37" d="M445.22,406.23l-1.39,64.63L405.16,458h0c-1.24-2.5-53.6-20.19-60-26.24s-9.25-79.26-3.4-78.54C355.45,354.89,445.22,406.23,445.22,406.23Z" transform="translate(-338.53 -224.21)"/><path class="cls-4" d="M443.82,470.86l-.47,21.62-32.15-.88c-.13-1.59-18.07-9.56-18-12.74s13.21-18.37,12-20.88h0Z" transform="translate(-338.53 -224.21)"/><path class="cls-4" d="M443.36,492.48l-.57,26.35H414s-13.47-11.2-13.54-12.6,10.87-13,10.73-14.63Z" transform="translate(-338.53 -224.21)"/><polygon class="cls-3" points="104.27 294.63 102.35 383.55 75.49 383.55 75.49 294.63 104.27 294.63"/><circle class="cls-34" cx="62.17" cy="166.04" r="2.79"/><circle class="cls-34" cx="35.01" cy="207.75" r="1.76"/><circle class="cls-34" cx="103.54" cy="205.99" r="1.76"/><path class="cls-34" d="M353.26,367s1.87,4.33,3,5.43,5.43,3,5.43,3-4.33,1.87-5.43,3-3,5.43-3,5.43-1.87-4.33-3-5.43-5.43-3-5.43-3,4.33-1.87,5.43-3S353.26,367,353.26,367Z" transform="translate(-338.53 -224.21)"/><path class="cls-34" d="M352.79,410.88a19.55,19.55,0,0,0,2,3.72,19.55,19.55,0,0,0,3.72,2,19.55,19.55,0,0,0-3.72,2,19.55,19.55,0,0,0-2,3.72,19.55,19.55,0,0,0-2-3.72,19.55,19.55,0,0,0-3.72-2,19.55,19.55,0,0,0,3.72-2A19.55,19.55,0,0,0,352.79,410.88Z" transform="translate(-338.53 -224.21)"/><path class="cls-34" d="M384.09,398.62a79.06,79.06,0,0,0,1.58,7.77,20.93,20.93,0,0,0,2.9,4.25,20.93,20.93,0,0,0-2.9,4.25,79.06,79.06,0,0,0-1.58,7.77,79.06,79.06,0,0,0-1.58-7.77,20.93,20.93,0,0,0-2.9-4.25,20.93,20.93,0,0,0,2.9-4.25A79.06,79.06,0,0,0,384.09,398.62Z" transform="translate(-338.53 -224.21)"/><path class="cls-34" d="M436.3,447.24a19.55,19.55,0,0,0,2,3.72,19.55,19.55,0,0,0,3.72,2,19.55,19.55,0,0,0-3.72,2,19.55,19.55,0,0,0-2,3.72,19.55,19.55,0,0,0-2-3.72,19.55,19.55,0,0,0-3.72-2,19.55,19.55,0,0,0,3.72-2A19.55,19.55,0,0,0,436.3,447.24Z" transform="translate(-338.53 -224.21)"/><path class="cls-37" d="M443.82,470.86c-.13,6.41-37.66-12.36-38.66-12.87Z" transform="translate(-338.53 -224.21)"/><path class="cls-39" d="M442.34,470.62" transform="translate(-338.53 -224.21)"/><path class="cls-39" d="M470,459.33" transform="translate(-338.53 -224.21)"/><path class="cls-39" d="M470,459.33" transform="translate(-338.53 -224.21)"/><path class="cls-39" d="M442.34,470.62" transform="translate(-338.53 -224.21)"/><path class="cls-39" d="M490.58,461.36" transform="translate(-338.53 -224.21)"/><path class="cls-39" d="M470,459.33" transform="translate(-338.53 -224.21)"/><path class="cls-39" d="M490.24,461.35" transform="translate(-338.53 -224.21)"/><ellipse class="cls-40" cx="154.87" cy="395.59" rx="114.23" ry="7.65"/><path class="cls-33" d="M492.3,413c-1.17-1.17-1.55.39-2.3.67l-.32-.22c.57-1.51,0-3.22.78-4.7,1.64-1,2.28-.63,2,1.31C492.33,411,492.35,412,492.3,413Z" transform="translate(-338.53 -224.21)"/><path class="cls-36" d="M493.05,422.6c2.09-8.12,1.06-17,.81-17.06-3.3-1.42-14.5,8.52-17.72,11.7,0,0-15.65,18.72-21,40.17-2.09,7.59,15.27,12.74,18.24,9C475.91,462.9,490.26,433.49,493.05,422.6Z" transform="translate(-338.53 -224.21)"/><path class="cls-38" d="M493.76,405.5c.25.11,1.35,9-.81,17.06s-20.11-2.18-16.9-5.36S490.46,404.08,493.76,405.5Z" transform="translate(-338.53 -224.21)"/><rect class="cls-36" x="452.34" y="463.74" width="4.17" height="39.88" rx="0.9" ry="0.9" transform="translate(-89.54 -371.59) rotate(25.18)"/><path class="cls-41" d="M438.56,470.62" transform="translate(-338.53 -224.21)"/><path class="cls-41" d="M466.25,459.33" transform="translate(-338.53 -224.21)"/><path class="cls-41" d="M466.25,459.33" transform="translate(-338.53 -224.21)"/><path class="cls-41" d="M438.56,470.62" transform="translate(-338.53 -224.21)"/><path class="cls-41" d="M486.8,461.36" transform="translate(-338.53 -224.21)"/><path class="cls-41" d="M466.25,459.33" transform="translate(-338.53 -224.21)"/><path class="cls-41" d="M486.46,461.35" transform="translate(-338.53 -224.21)"/><circle class="cls-1" cx="9.72" cy="330.34" r="4.16"/><circle class="cls-1" cx="170.64" cy="73.96" r="2.79"/><circle class="cls-1" cx="122.31" cy="64.24" r="2.79"/><circle class="cls-1" cx="296.59" cy="341.3" r="4.16"/><circle class="cls-1" cx="33.24" cy="285.67" r="6.46"/><circle class="cls-1" cx="80.12" cy="131.61" r="6.46"/><path class="cls-1" d="M584.65,375.35s1.87,4.33,3,5.43,5.43,3,5.43,3-4.33,1.87-5.43,3-3,5.43-3,5.43-1.87-4.33-3-5.43-5.43-3-5.43-3,4.33-1.87,5.43-3S584.65,375.35,584.65,375.35Z" transform="translate(-338.53 -224.21)"/><rect class="cls-12" x="60.17" y="336.62" width="92.38" height="39.63" rx="5.17" ry="5.17"/><rect class="cls-17" x="74.57" y="314.7" width="60.53" height="21.92" rx="2.3" ry="2.3"/><g class="cls-42"><rect class="cls-14" x="60.17" y="336.62" width="92.38" height="44.06" rx="5.17" ry="5.17"/></g><g class="cls-43"><rect class="cls-16" x="60.17" y="336.62" width="92.38" height="39.63" rx="5.17" ry="5.17"/></g><path class="cls-18" d="M444.74,499.63s1.12,2.31,0,4.06-3,4-2.62,5.94,1.29,3.26,3.53,3.29c2.45,0,4.3-1.45,4.3-4.57S447.75,500.66,444.74,499.63Z" transform="translate(-338.53 -224.21)"/><g class="cls-44"><rect class="cls-20" x="78.14" y="314.7" width="60.53" height="25.51" rx="2.46" ry="2.46"/></g><rect class="cls-21" x="84.91" y="300.37" width="42.9" height="15.14" rx="2.3" ry="2.3"/><g class="cls-45"><rect class="cls-23" x="84.91" y="300.96" width="42.9" height="18.08" rx="2.46" ry="2.46"/></g><g class="cls-46"><rect class="cls-25" x="84.91" y="300.37" width="42.9" height="19.26" rx="2.46" ry="2.46"/></g><g class="cls-47"><rect class="cls-25" x="77.12" y="314.7" width="60.53" height="21.92" rx="2.46" ry="2.46"/></g><polygon class="cls-1" points="102.47 299.31 102.47 299.43 102.43 299.46 102.47 299.31"/><line class="cls-27" x1="106.51" y1="300.37" x2="106.48" y2="300.4"/><polygon class="cls-28" points="110.07 294.26 110.07 296.64 107.59 300.37 105.99 300.37 110.07 294.26"/><polygon class="cls-29" points="110.07 288.78 110.07 294.26 105.99 300.37 104.91 300.37 104.91 299.43 110.06 291.73 110.06 289.39 105.36 296.44 104.94 297.07 104.94 294.97 109.08 288.78 110.07 288.78"/><polygon class="cls-28" points="110.06 289.39 110.06 291.73 104.91 299.43 104.91 288.78 106.55 288.78 104.95 291.15 104.95 293.17 107.88 288.78 109.08 288.78 104.94 294.97 104.94 297.07 105.36 296.44 110.06 289.39"/><polygon class="cls-29" points="110.07 296.64 110.07 300.37 107.59 300.37 110.07 296.64"/><polygon class="cls-29" points="107.88 288.78 104.95 293.17 104.95 291.15 106.55 288.78 107.88 288.78"/><polygon class="cls-1" points="109.09 288.76 109.08 288.78 107.88 288.78 107.89 288.76 109.09 288.76"/><line class="cls-27" x1="110.06" y1="298.89" x2="109.07" y2="300.38"/><line class="cls-27" x1="105.99" y1="300.37" x2="105.97" y2="300.4"/><path class="cls-6" d="M445.42,506.81a2.14,2.14,0,0,1,0,1.87c-.51.81-1.37,1.84-1.21,2.73a1.56,1.56,0,0,0,1.62,1.51,1.87,1.87,0,0,0,2-2.1C447.82,509.38,446.81,507.28,445.42,506.81Z" transform="translate(-338.53 -224.21)"/><ellipse class="cls-30" cx="79.37" cy="361.43" rx="3.27" ry="0.98"/><ellipse class="cls-8" cx="104.63" cy="350.05" rx="0.32" ry="3.23"/><ellipse class="cls-6" cx="92.92" cy="329.06" rx="1.62" ry="1.61"/><ellipse class="cls-30" cx="106.55" cy="324.43" rx="3.01" ry="1.23"/><ellipse class="cls-30" cx="103.5" cy="309.39" rx="2.17" ry="1.45"/><ellipse class="cls-6" cx="116.2" cy="307.82" rx="1.56" ry="0.77"/><ellipse class="cls-31" cx="129.08" cy="331.14" rx="2.27" ry="1.05"/><ellipse class="cls-31" cx="134.46" cy="348.97" rx="2.17" ry="2.15"/><ellipse class="cls-6" cx="115.67" cy="341.23" rx="1.03" ry="1.02"/><ellipse class="cls-30" cx="95.76" cy="340.02" rx="1.22" ry="1.21"/><path class="cls-1" d="M624.06,579.3s-1.64,4.42-1.61,6,1.87,5.9,1.87,5.9-4.42-1.64-6-1.61-5.9,1.87-5.9,1.87,1.64-4.42,1.61-6-1.87-5.9-1.87-5.9,4.42,1.64,6,1.61S624.06,579.3,624.06,579.3Z" transform="translate(-338.53 -224.21)"/><path class="cls-1" d="M625.7,495.72,597.1,513.14c3-5,6.5-8.3,9.31-12.15.76-1,1.62-2,2.42-3,3.2-4.06,3.2-4.06-1.85-5.75-4.31-1.43-4.31-1.44-1.61-5,3.7-4.87,7.45-9.69,11.09-14.6,1.36-1.84,2.71-2.56,5.05-1.64,3.82,1.51,7.79,2.65,11.68,4,.83.29,2.12.18,2.22,1.36.08.86-1,1.24-1.57,1.77-4.45,3.84-8.92,7.66-13.3,11.57-2.7,2.4-2.56,2.75.81,4C622.75,494.23,624.35,494.29,625.7,495.72Z" transform="translate(-338.53 -224.21)"/><path class="cls-1" d="M463,259.67q1.16,5.38,2.23,10.78t2,10.83c.64,3.61,1.19,7.25,1.7,10.89s1,7.29,1.15,11h-.71c.28-3.64.57-7.28.94-10.92s.74-7.27,1.21-10.89.94-7.24,1.47-10.85,1.12-7.21,1.75-10.81c-.51,3.61-1,7.23-1.41,10.86s-.88,7.24-1.27,10.87-.78,7.25-1.11,10.89-.62,7.27-.87,10.9h-.71c-.17-3.64-.6-7.29-1.08-10.92s-1-7.26-1.6-10.88-1.16-7.24-1.79-10.86S463.62,263.28,463,259.67Z" transform="translate(-338.53 -224.21)"/><path class="cls-1" d="M495.78,267.61q-1.36,5.33-2.81,10.65t-3.05,10.58c-1,3.52-2.16,7-3.33,10.5s-2.39,7-3.87,10.34l-.63-.32c1.87-3.14,3.76-6.26,5.71-9.35s3.9-6.17,5.93-9.21,4.07-6.06,6.15-9.06,4.22-6,6.38-8.9q-3.1,4.51-6.1,9.09t-6,9.17c-2,3.08-3.93,6.15-5.84,9.25s-3.79,6.23-5.64,9.37l-.63-.32c1.48-3.34,2.71-6.79,3.9-10.26s2.31-7,3.42-10.45,2.19-7,3.24-10.52S494.77,271.13,495.78,267.61Z" transform="translate(-338.53 -224.21)"/><polygon class="cls-1" points="131.02 0 135.93 9.94 146.9 11.54 138.96 19.27 140.83 30.2 131.02 25.04 121.2 30.2 123.08 19.27 115.14 11.54 126.11 9.94 131.02 0"/><polygon class="cls-1" points="182.39 14.79 181.29 25.82 189.77 32.98 178.94 35.35 174.75 45.62 169.15 36.05 158.09 35.24 165.46 26.95 162.81 16.19 172.97 20.64 182.39 14.79"/><path class="cls-32" d="M459.15,495.09l-2.16-.23a1.24,1.24,0,0,1-1.08-1.43l6.13-43.5a1.34,1.34,0,0,1,1.44-1.16l2.16.23a1.24,1.24,0,0,1,1.08,1.43l-6.13,43.5A1.34,1.34,0,0,1,459.15,495.09Z" transform="translate(-338.53 -224.21)"/><path class="cls-33" d="M479.07,379.9c-1.66-.84-1.55,1-2.27,1.61l-.42-.12c.12-1.88-1.08-3.53-.71-5.45,1.43-1.77,2.26-1.56,2.61.67C478.45,377.73,478.8,378.81,479.07,379.9Z" transform="translate(-338.53 -224.21)"/><path class="cls-34" d="M482.18,406.35s-5.42,3.72-14.59,3.12-8.95-5.75-8.95-5.75c1.69-6,3.3-10.39,4-12.15-.45,2.38-.85,8.93,8.1,9.92,11,1.21,12.16-10.46,12.16-10.46L463,390.72c2.44-4.72,11.3-19.91,15.35-19.61.3,0,4.33,9.32,4.75,19A129.25,129.25,0,0,1,482.18,406.35Z" transform="translate(-338.53 -224.21)"/><path class="cls-36" d="M482.18,406.35c-.3,3.08-.67,6.3-1.08,9.53,0,0-9.73,4.26-14.89,3.32s-10.06-5.35-10.06-5.35c.78-3.69,1.65-7.11,2.5-10.12,0,0-.22,5.16,8.95,5.75S482.18,406.35,482.18,406.35Z" transform="translate(-338.53 -224.21)"/><path class="cls-34" d="M481.1,415.88c-.43,3.43-.9,6.86-1.37,10.12,0,0-7.39,4.42-14.63,4.1a13.73,13.73,0,0,1-10.7-6.22h0c.48-3.5,1.08-6.87,1.75-10,0,0,4.89,4.41,10.06,5.35S481.1,415.88,481.1,415.88Z" transform="translate(-338.53 -224.21)"/><path class="cls-35" d="M479.73,426c-.59,4.05-1.19,7.84-1.74,11,0,0-3.76,5-12.75,4.46s-11.84-5.84-11.84-5.84a112.88,112.88,0,0,1,1-11.75,13.73,13.73,0,0,0,10.7,6.22C472.33,430.42,479.73,426,479.73,426Z" transform="translate(-338.53 -224.21)"/><path class="cls-37" d="M478,437c-.74,4.32-1.38,7.51-1.76,8.69-2,5.25-22.51,6.24-22.76-2.9-.12-2.39-.14-4.79-.07-7.17,0,0,2.85,5.25,11.84,5.84S478,437,478,437Z" transform="translate(-338.53 -224.21)"/><path class="cls-35" d="M482.88,391s-1.2,11.67-12.16,10.46c-8.95-1-8.55-7.55-8.1-9.92.21-.56.33-.85.33-.85Z" transform="translate(-338.53 -224.21)"/><path class="cls-35" d="M463,390.72s-.12.3-.33.85a8.24,8.24,0,0,1,.2-.86Z" transform="translate(-338.53 -224.21)"/><path class="cls-38" d="M478.18,371.11c.3,0,4.42,9.31,4.75,19s-22.54,5.29-20.1.57S474.12,370.81,478.18,371.11Z" transform="translate(-338.53 -224.21)"/><path class="cls-32" d="M481.16,521l-2,.81a1.24,1.24,0,0,1-1.62-.76l-15.08-41.26a1.34,1.34,0,0,1,.73-1.7l2-.81a1.24,1.24,0,0,1,1.62.76l15.08,41.26A1.34,1.34,0,0,1,481.16,521Z" transform="translate(-338.53 -224.21)"/><path class="cls-33" d="M444.49,410c-1.86,0-.89,1.63-1.24,2.49l-.43.09c-.78-1.71-2.61-2.61-3.19-4.48.43-2.24,1.26-2.44,2.62-.63C442.92,408.33,443.74,409.12,444.49,410Z" transform="translate(-338.53 -224.21)"/><path class="cls-34" d="M459.69,431.82s-3,5.83-11.4,9.62-10.6-.86-10.6-.86c-1.33-6.09-2-10.72-2.22-12.59.72,2.31,3.45,8.28,11.82,4.94,10.24-4.09,5.81-15,5.81-15l-17.74,9.1c-.07-5.31.59-22.88,4.31-24.53.28-.12,8.21,6.19,13.15,14.56A129.25,129.25,0,0,1,459.69,431.82Z" transform="translate(-338.53 -224.21)"/><path class="cls-35" d="M459.69,431.82c1.18,2.86,2.37,5.87,3.53,8.92,0,0-6.58,8.34-11.58,9.94s-11.39,0-11.39,0c-1-3.63-1.89-7-2.56-10.1,0,0,2.23,4.66,10.6.86S459.69,431.82,459.69,431.82Z" transform="translate(-338.53 -224.21)"/><path class="cls-36" d="M463.22,440.74c1.24,3.23,2.44,6.48,3.56,9.58,0,0-4.44,7.38-11,10.51a13.73,13.73,0,0,1-12.36-.45h0c-1.23-3.31-2.28-6.57-3.18-9.68,0,0,6.39,1.58,11.39,0S463.22,440.74,463.22,440.74Z" transform="translate(-338.53 -224.21)"/><path class="cls-35" d="M466.78,450.32c1.39,3.86,2.64,7.48,3.65,10.53,0,0-.94,6.22-9.15,9.94s-13.19.42-13.19.42a112.88,112.88,0,0,1-4.65-10.83,13.73,13.73,0,0,0,12.36.45C462.34,457.69,466.78,450.32,466.78,450.32Z" transform="translate(-338.53 -224.21)"/><path class="cls-37" d="M470.43,460.85c1.38,4.16,2.31,7.27,2.54,8.5.72,5.57-16.93,16.1-21.44,8.16-1.23-2.05-2.38-4.16-3.44-6.3,0,0,5,3.29,13.19-.42S470.43,460.85,470.43,460.85Z" transform="translate(-338.53 -224.21)"/><path class="cls-35" d="M453.1,418s4.43,10.86-5.81,15c-8.36,3.34-11.1-2.63-11.82-4.94-.08-.59-.11-.91-.11-.91Z" transform="translate(-338.53 -224.21)"/><path class="cls-35" d="M435.37,427.09s0,.32.11.91a8.24,8.24,0,0,1-.22-.85Z" transform="translate(-338.53 -224.21)"/><path class="cls-38" d="M439.56,402.62c.28-.12,8.29,6.13,13.15,14.56s-17.39,15.28-17.46,10S435.85,404.26,439.56,402.62Z" transform="translate(-338.53 -224.21)"/><path class="cls-32" d="M462.76,518.84l-2.16.19a1.27,1.27,0,0,1-1.33-1.26l-2.35-46a1.39,1.39,0,0,1,1.19-1.48l2.16-.19a1.27,1.27,0,0,1,1.33,1.26l2.35,46A1.39,1.39,0,0,1,462.76,518.84Z" transform="translate(-338.53 -224.21)"/><path class="cls-33" d="M460.15,396.34c-1.79-.53-1.33,1.36-1.92,2.12l-.44,0c-.25-2-1.74-3.41-1.74-5.47,1.06-2.11,1.92-2.06,2.69.17C459.12,394.23,459.67,395.27,460.15,396.34Z" transform="translate(-338.53 -224.21)"/><path class="cls-34" d="M468.29,422.92s-4.6,4.91-13.71,6.15-9.89-4.11-9.89-4.11c.51-6.51,1.24-11.35,1.56-13.3,0,2.54.88,9.36,9.86,8.57,11-1,9.93-13.21,9.93-13.21l-19.62,3.69c1.48-5.34,7.26-22.76,11.29-23.27.3,0,6,8.72,8.32,18.62A141.61,141.61,0,0,1,468.29,422.92Z" transform="translate(-338.53 -224.21)"/><path class="cls-35" d="M468.29,422.92c.29,3.23.55,6.61.77,10,0,0-8.73,6.34-14,6.41s-10.9-3.48-10.9-3.48c.06-4,.25-7.64.51-10.91,0,0,.77,5.35,9.89,4.11S468.29,422.92,468.29,422.92Z" transform="translate(-338.53 -224.21)"/><path class="cls-35" d="M469.06,432.94c.24,3.62.44,7.24.6,10.69,0,0-6.4,6-13.57,7.17a13.42,13.42,0,0,1-11.69-4.24h0c-.2-3.69-.26-7.28-.21-10.68,0,0,5.65,3.55,10.9,3.48S469.06,432.94,469.06,432.94Z" transform="translate(-338.53 -224.21)"/><path class="cls-34" d="M469.66,443.63c.2,4.29.34,8.31.41,11.68,0,0-2.72,5.95-11.66,7.16s-12.74-3.62-12.74-3.62c-.65-4.13-1.05-8.27-1.28-12.29a13.42,13.42,0,0,0,11.69,4.24C463.25,449.66,469.66,443.63,469.66,443.63Z" transform="translate(-338.53 -224.21)"/><path class="cls-35" d="M470.07,455.31c.1,4.6.09,8-.06,9.3-.94,5.8-20.89,11-22.89,1.61-.58-2.43-1.06-4.9-1.44-7.37,0,0,3.81,4.83,12.74,3.62S470.07,455.31,470.07,455.31Z" transform="translate(-338.53 -224.21)"/><path class="cls-35" d="M466,407s1.06,12.24-9.93,13.21c-9,.78-9.84-6-9.86-8.57.1-.61.16-.94.16-.94Z" transform="translate(-338.53 -224.21)"/><path class="cls-35" d="M446.41,410.72s-.06.33-.16.94a9.05,9.05,0,0,1,0-.92Z" transform="translate(-338.53 -224.21)"/><path class="cls-38" d="M457.58,387.47c.3,0,6.13,8.69,8.32,18.62s-21.1,10-19.62,4.64S453.54,388,457.58,387.47Z" transform="translate(-338.53 -224.21)"/><path class="cls-48" d="M548,547.11c-.24-.47-3.13,1-4.22,1.06s-1.07-.4-1.07-.4a14.57,14.57,0,0,1,2.92-2.76c1.05-.5,1.55-.26,1.55-.26Z" transform="translate(-338.53 -224.21)"/><path class="cls-4" d="M550.52,544.7l-3.34.05,2.52-.49A2.51,2.51,0,0,0,550.52,544.7Z" transform="translate(-338.53 -224.21)"/><path class="cls-31" d="M549.7,544.26l-2.52.49s0-.85,1.41-1.29,2-.4,2.1-.27S549.6,544.13,549.7,544.26Z" transform="translate(-338.53 -224.21)"/><path class="cls-11" d="M548.38,548.43c-.14-.49-2.54,1.25-3.1,1.36s-1-.57-1-.57,3.84-1.56,3.78-2.07Z" transform="translate(-338.53 -224.21)"/><path class="cls-49" d="M554.95,547.09s.09.9-.25,1-2.47.18-2.37.8l-.12-1.36C552.52,548.23,554.95,547.09,554.95,547.09Z" transform="translate(-338.53 -224.21)"/><path class="cls-49" d="M549,549.54c-.31-.43-1.73,1.24-2.34,1.36a1.23,1.23,0,0,1-1.08-.43s2.95-1.55,2.81-2Z" transform="translate(-338.53 -224.21)"/><path class="cls-9" d="M549.59,551.29c-.15-.4-1.29.94-1.62,1s-1-.51-1-.51,2.2-1.59,2.07-2.17Z" transform="translate(-338.53 -224.21)"/><path class="cls-49" d="M554.16,551.47c-.37.19-1.59.08-1.6.55l-.13-1.61c.17.69,2,.28,2,.28S554.55,551.27,554.16,551.47Z" transform="translate(-338.53 -224.21)"/><path class="cls-48" d="M550.23,552.68c-.19-.25-.87.42-1.42.47a.7.7,0,0,1-.76-.33s1.69-1.13,1.54-1.53Z" transform="translate(-338.53 -224.21)"/><path class="cls-50" d="M551.35,554c-.21-.11-1,.29-1.41.37s-.74-.43-.74-.43,1.18-.69,1.07-1.14Z" transform="translate(-338.53 -224.21)"/><path class="cls-48" d="M553.35,557.49c-.83.35-2.93-2.43-2.93-2.43s1.06-.81,1-1Z" transform="translate(-338.53 -224.21)"/><path class="cls-48" d="M553.91,553.84s-.15,3.48-.56,3.66l-.52-3.84C552.9,553.85,553.91,553.84,553.91,553.84Z" transform="translate(-338.53 -224.21)"/><path class="cls-31" d="M554.17,552.17a.91.91,0,0,1-.48.88c-.53.24-.83.33-.87.57l-.25-1.53C552.69,552.62,554.17,552.17,554.17,552.17Z" transform="translate(-338.53 -224.21)"/><path class="cls-1" d="M554.7,549a.9.9,0,0,1-.31.87c-.4.29-1.9-.09-2,.41l-.1-1.33C552.42,549.57,554.7,549,554.7,549Z" transform="translate(-338.53 -224.21)"/><path class="cls-37" d="M555.2,545.47a1,1,0,0,1-.47.91c-.53.35-2.67.55-2.56,1.13l-.47-1.41C552,546.68,555.2,545.47,555.2,545.47Z" transform="translate(-338.53 -224.21)"/><path class="cls-48" d="M555.47,543.7c-.3,2-3.91,1.62-3.79,2.34l-1.13-1.34c.1,0,.22-1.66.54-1.67A10.4,10.4,0,0,1,555.47,543.7Z" transform="translate(-338.53 -224.21)"/><polygon class="cls-31" points="213.16 321.83 209.48 322.9 208.65 320.54 211.99 320.49 212.02 320.49 213.16 321.83"/><path class="cls-49" d="M552.2,547.58l-3.82.84-.37-1.29a.08.08,0,0,0,0,0l3.68-1.07a.2.2,0,0,0,0,.06h0l.47,1.41A.29.29,0,0,0,552.2,547.58Z" transform="translate(-338.53 -224.21)"/><polygon class="cls-31" points="213.68 323.38 213.8 324.73 210.49 325.37 210.47 325.34 209.85 324.22 213.68 323.38"/><path class="cls-49" d="M552.32,548.94l.1,1.33a.35.35,0,0,0,0,.13l-2.85.89-.56-1.67,0,0Z" transform="translate(-338.53 -224.21)"/><path class="cls-31" d="M552.44,550.4l.13,1.61a.21.21,0,0,0,0,.06l-2.3.69a.23.23,0,0,0,0-.08l-.64-1.39Z" transform="translate(-338.53 -224.21)"/><path class="cls-48" d="M550.23,552.68a.23.23,0,0,1,0,.08Z" transform="translate(-338.53 -224.21)"/><path class="cls-49" d="M552.57,552.08h0l.25,1.53-1.42.4a.09.09,0,0,0,0,0l-1.08-1.2Z" transform="translate(-338.53 -224.21)"/><path class="cls-48" d="M551.39,554l0,0A.09.09,0,0,1,551.39,554Z" transform="translate(-338.53 -224.21)"/><path class="cls-48" d="M552.43,550.27v.13A.35.35,0,0,1,552.43,550.27Z" transform="translate(-338.53 -224.21)"/><path class="cls-48" d="M551.39,554" transform="translate(-338.53 -224.21)"/><path class="cls-51" d="M552.82,553.62a.06.06,0,0,0,0,0l.52,3.84-2-3.48Z" transform="translate(-338.53 -224.21)"/><ellipse class="cls-40" cx="77.58" cy="383.85" ry="6.33"/><path class="cls-4" d="M414.8,536.48s-.32-9.55-6.81-5.62-6.76,22.3-2.75,24.09,16.52-5.85,17.51-12.31S418,534.64,414.8,536.48Z" transform="translate(-338.53 -224.21)"/><path class="cls-5" d="M414,526.7l.95,9.5,8.77-3c-2.21-1.69-4.37-.89-8.77,3,2.3-5.2-1.15-9.81-1.15-9.81" transform="translate(-338.53 -224.21)"/><ellipse class="cls-6" cx="406.93" cy="540.59" rx="1.03" ry="0.5" transform="translate(-595.62 446.37) rotate(-64.11)"/><ellipse class="cls-6" cx="408.79" cy="533.23" rx="1.03" ry="0.5" transform="translate(-587.95 443.91) rotate(-64.11)"/><ellipse class="cls-6" cx="408.18" cy="547.73" rx="1.03" ry="0.5" transform="translate(-601.34 451.52) rotate(-64.11)"/><ellipse class="cls-6" cx="404.4" cy="548.57" rx="1.03" ry="0.5" transform="translate(-604.23 448.6) rotate(-64.11)"/><ellipse class="cls-6" cx="411.48" cy="541.65" rx="1.03" ry="0.5" transform="translate(-594.01 451.06) rotate(-64.11)"/><ellipse class="cls-6" cx="420.53" cy="542.34" rx="1.03" ry="0.5" transform="translate(-589.54 459.6) rotate(-64.11)"/><ellipse class="cls-6" cx="414.56" cy="544.3" rx="1.03" ry="0.5" transform="translate(-594.66 455.33) rotate(-64.11)"/><ellipse class="cls-6" cx="415.48" cy="548.51" rx="1.03" ry="0.5" transform="translate(-597.93 458.53) rotate(-64.11)"/><ellipse class="cls-6" cx="410.49" cy="552.68" rx="1.03" ry="0.5" transform="translate(-604.49 456.39) rotate(-64.11)"/><ellipse class="cls-6" cx="412.52" cy="535.04" rx="1.03" ry="0.5" transform="translate(-587.48 448.28) rotate(-64.11)"/><path class="cls-52" d="M645.46,423.07c-21.67-12.29-71.51-19.37-110.71-7.16,17.55,2,19.34,2.42,22.81,4.91s85.93,4.55,85.93,4.55Z" transform="translate(-338.53 -224.21)"/><path class="cls-52" d="M553.85,418.86c20.79-4.68,108-2.06,107.62,16.68-12.95,13.2-97.89,4-97.89,4" transform="translate(-338.53 -224.21)"/><path class="cls-53" d="M553.31,419c6.11,5.22,11.75,14.34,11.36,30.24S558.22,480,542.49,478.4c6,14.15,10.89,35.15,2.72,44.31s-50.21,10.1-59,0,2.12-39.47,4.84-42.53c-8.2-4.28-21.17-10.55-21.78-26.84s2.88-49.84,42.3-47.91C531.69,406.42,542.42,409.75,553.31,419Z" transform="translate(-338.53 -224.21)"/><path class="cls-41" d="M525.62,455.56s6.89-6.29,18.26-4.19" transform="translate(-338.53 -224.21)"/><path class="cls-41" d="M525.62,463.19s8.08-1.34,12.27,0" transform="translate(-338.53 -224.21)"/><ellipse class="cls-49" cx="176.9" cy="221.19" rx="1.53" ry="7.86"/><ellipse class="cls-49" cx="165.23" cy="221.19" rx="1.53" ry="7.86"/><path class="cls-53" d="M582.79,474.36c2,4,3.18,6.93-.64,16.52s-12,27.23-21.78,32.27-14.07.13-14.55-5.79,13.34-3.66,15.94-8.4,11.55-34.54,16.57-36.54C581.66,471.11,582.39,473.56,582.79,474.36Z" transform="translate(-338.53 -224.21)"/><path class="cls-41" d="M434.07,472.43c4-17,7.74-21.55,11.33-22.16s10.58,6.27,14.87,13.38c0,0-10.13,1.17-13.32,2.2C443.41,467,434.07,472.43,434.07,472.43Z" transform="translate(-338.53 -224.21)"/><path class="cls-41" d="M492.74,464.64c5.67-4.5,13.42-17.84,18.81-16.64s9.11,21.39,8.53,25.56c0,0-7.32-5.66-10.18-6.72C505.85,465.33,492.74,464.64,492.74,464.64Z" transform="translate(-338.53 -224.21)"/><path class="cls-41" d="M540.68,519.73c.89,30.53,4.17,77.83,0,83.81S528.11,617,507.14,617s-54.48.89-56.89,0-21.55-1.81-19.44-19.16,16.46-39.51,22.44-40.12c-22.61-5.39-40.12-17.07-40.12-39.42s8-37,27.55-47.7c9-4.91,9.73-7,31.43-6.28s39.12,1.22,44.31,4.79C528,477.09,539.76,489.2,540.68,519.73Z" transform="translate(-338.53 -224.21)"/><ellipse class="cls-49" cx="112.63" cy="286.54" rx="2.1" ry="10.78"/><ellipse class="cls-49" cx="128.65" cy="286.54" rx="2.1" ry="10.78"/><path class="cls-41" d="M480.8,528.11s6.89-6.29,18.26-4.19" transform="translate(-338.53 -224.21)"/><path class="cls-41" d="M483.49,531.86s8.08-1.34,12.27,0" transform="translate(-338.53 -224.21)"/><path class="cls-41" d="M431.7,517.63s9.88.94,12.57,5.86" transform="translate(-338.53 -224.21)"/><path class="cls-41" d="M431.7,528.11s4.49-1.48,10.18,3.15" transform="translate(-338.53 -224.21)"/><path class="cls-54" d="M569.12,557c.65,11.28-3,21.51-10.35,29.07-8.23,8.43-21.48,5.95-25.78,6.61s-6.05,2.31-6.45,5.62-.42,8.85,7.62,11.56c10.11,3.41,15.21,4,23.83,2,9.84-2.28,19.42-16.11,30.66-32.6,4.61-6.77,12.52-21.1,11.7-30.6-1.34-15.49-14.74-3.38-16.42-3.7s-1.35-5.91-8.49-5.44S568.85,552.32,569.12,557Z" transform="translate(-338.53 -224.21)"/><path class="cls-34" d="M407.54,418.9a22.74,22.74,0,0,0,2.37,4.33,22.74,22.74,0,0,0,4.33,2.37,22.74,22.74,0,0,0-4.33,2.37,22.74,22.74,0,0,0-2.37,4.33,22.74,22.74,0,0,0-2.37-4.33,22.74,22.74,0,0,0-4.33-2.37,22.74,22.74,0,0,0,4.33-2.37A22.74,22.74,0,0,0,407.54,418.9Z" transform="translate(-338.53 -224.21)"/><circle class="cls-34" cx="85" cy="186.44" r="2.2"/><circle class="cls-34" cx="29.15" cy="172.91" r="2.19"/><circle class="cls-34" cx="87.73" cy="211.43" r="1.76"/><circle class="cls-34" cx="66.04" cy="224.55" r="2.98"/></svg>